# xmcd CD database file
#
# Track frame offsets:
#	150
#	18904
#	37339
#	58951
#	81039
#	103765
#	129822
#	142270
#	159716
#	181155
#	203638
#	223950
#	248025
#
# Disc length: 3611 seconds
#
# Revision: 4
# Processed by: cddbd v1.5.2PL0 Copyright (c) Steve Scherf et al.
# Submitted via: CDex 1.70beta2
#
DISCID=be0e190d
DTITLE=Diana Krall - Quiet Nights (Japan Edition)
DYEAR=2009
DGENRE=Jazz
TTITLE0=Where Or When
TTITLE1=Too Marvelous For Words
TTITLE2=I've Grown Accustomed To His Face
TTITLE3=The Boy From Ipanema
TTITLE4=Walk On By
TTITLE5=You're My Thrill
TTITLE6=Este Seu Olhar
TTITLE7=So Nice
TTITLE8=Quiet Nights
TTITLE9=Guess I'll Hang My Tears Out To Dry
TTITLE10=How Can You Mend A Broken Heart
TTITLE11=Every Time Say Goodbye
TTITLE12=I See You Face Before Me (Bonus Track)
EXTD=YEAR: 2009
EXTT0=
EXTT1=
EXTT2=
EXTT3=
EXTT4=
EXTT5=
EXTT6=
EXTT7=
EXTT8=
EXTT9=
EXTT10=
EXTT11=
EXTT12=
PLAYORDER=
